<svg width="451" height="128" viewBox="0 0 451 128" fill="none" xmlns="http://www.w3.org/2000/svg">
<path d="M40.5117 112.811L41.8243 103.842L46.7828 21.3695L46.4911 13.8588H61.5126L94.6181 95.9663H95.4931L129.474 13.8588H143.547L143.255 21.3695L147.849 103.842L149.162 112.811H133.047L133.266 103.842L130.567 43.0266L130.349 30.5574H129.547L95.7848 109.456H87.1074L53.7102 29.3177H52.8351L48.5329 103.842L48.8246 112.811H40.5117Z" fill="#EFEFEF"/>
<path d="M0 126.669L0.931289 115.214V9.88524L0 0.292969H150.093L149.347 7.1845L135.937 6.16009H19.4639V57.1947L48.2717 56.2634V62.2236H19.4639V120.709H136.03L149.161 119.684V126.669H0Z" fill="#EFEFEF"/>
<path d="M398.783 96.338C396.081 96.338 393.557 95.8313 391.213 94.818C388.888 93.8046 386.901 92.4138 385.252 90.6454C383.623 88.8571 382.331 86.7211 381.377 84.2374C380.443 81.7338 379.977 79.0415 379.977 76.1604C379.977 73.2594 380.414 70.5274 381.288 67.9642C382.162 65.3811 383.424 63.0961 385.073 61.1092C386.722 59.1222 388.828 57.5525 391.392 56.4001C393.975 55.2278 396.856 54.6416 400.035 54.6416C403.631 54.6416 406.88 55.5556 409.781 57.3836C412.682 59.1917 414.927 61.6357 416.517 64.7155C418.106 67.7953 418.901 71.1831 418.901 74.8788C418.901 77.7798 418.444 80.5218 417.53 83.1048C416.636 85.668 415.344 87.9431 413.656 89.9301C411.987 91.8971 409.87 93.4569 407.307 94.6093C404.744 95.7618 401.903 96.338 398.783 96.338ZM399.797 94.2219C402.26 94.2219 404.446 93.4072 406.353 91.7779C408.261 90.1287 409.711 87.9232 410.705 85.1613C411.698 82.3796 412.195 79.27 412.195 75.8325C412.195 73.7065 412.016 71.6897 411.659 69.7823C411.321 67.8748 410.794 66.1262 410.079 64.5367C409.364 62.9471 408.489 61.5761 407.456 60.4237C406.443 59.2514 405.211 58.3473 403.76 57.7115C402.33 57.0558 400.76 56.7279 399.051 56.7279C395.475 56.7279 392.524 58.4268 390.199 61.8245C387.875 65.2222 386.712 69.6034 386.712 74.9682C386.712 78.7434 387.169 82.0517 388.083 84.8931C389.017 87.7345 390.478 89.9996 392.465 91.6885C394.471 93.3774 396.915 94.2219 399.797 94.2219Z" fill="#EFEFEF"/>
<path d="M351.949 95.9504C350.34 95.9504 346.594 95.871 340.713 95.712L341.011 92.1653V58.367L340.713 55.2674C345.203 55.1084 349.118 55.0289 352.456 55.0289C355.873 55.0289 358.913 55.4065 361.576 56.1615C364.239 56.9165 366.404 57.92 368.073 59.1717C369.762 60.4235 371.143 61.9336 372.216 63.702C373.309 65.4506 374.064 67.2587 374.481 69.1264C374.918 70.9743 375.137 72.9613 375.137 75.0873C375.137 77.3922 374.909 79.5282 374.452 81.4953C373.995 83.4624 373.2 85.35 372.067 87.1581C370.954 88.9663 369.534 90.5062 367.805 91.7778C366.076 93.0495 363.861 94.0628 361.159 94.8179C358.476 95.5729 355.406 95.9504 351.949 95.9504ZM352.754 93.9833C355.436 93.9833 357.801 93.5065 359.847 92.5527C361.914 91.599 363.563 90.2777 364.795 88.5887C366.047 86.8998 366.981 84.9824 367.596 82.8365C368.212 80.6707 368.52 78.2963 368.52 75.7132C368.52 63.1953 363.056 56.9364 352.128 56.9364C350.856 56.9364 349.138 57.006 346.972 57.145V93.7449C348.919 93.9039 350.846 93.9833 352.754 93.9833Z" fill="#EFEFEF"/>
<path d="M310.209 95.712L310.507 92.046V58.3372L310.209 55.2673H332.175L331.936 57.4729L327.645 57.145H316.438V73.4778L331.46 73.1798V75.0873H316.438V93.8045H327.674L331.877 93.4766V95.712H310.209Z" fill="#EFEFEF"/>
<path d="M291.131 96.338C287.495 96.338 284.216 95.5035 281.296 93.8344C278.375 92.1654 276.09 89.8208 274.441 86.8006C272.791 83.7804 271.967 80.3529 271.967 76.5181C271.967 74.3125 272.215 72.1666 272.712 70.0803C273.209 67.994 273.994 66.017 275.066 64.1492C276.139 62.2616 277.441 60.6224 278.971 59.2315C280.501 57.8207 282.378 56.708 284.604 55.8934C286.849 55.0589 289.303 54.6416 291.966 54.6416C295.761 54.6416 299.129 55.3668 302.069 56.8173L300.341 59.5891C299.367 58.7149 298.403 58.0989 297.45 57.7413C295.959 57.165 293.943 56.8769 291.399 56.8769C289.432 56.8769 287.614 57.4134 285.945 58.4864C284.296 59.5395 282.935 60.9502 281.862 62.7186C280.809 64.4671 279.984 66.4342 279.388 68.6199C278.812 70.7857 278.524 73.021 278.524 75.3259C278.524 77.7698 278.802 80.0946 279.358 82.3001C279.935 84.4858 280.759 86.4727 281.832 88.261C282.925 90.0294 284.365 91.4401 286.154 92.4932C287.962 93.5463 289.998 94.0729 292.264 94.0729C294.489 94.0729 296.605 93.6655 298.612 92.8509C299.665 92.4138 300.639 91.7481 301.533 90.854L302.993 93.3874C299.496 95.3545 295.542 96.338 291.131 96.338Z" fill="#EFEFEF"/>
<path d="M233.502 95.712L235.141 92.046L249.924 55.2673H254.186L268.284 92.046L270.012 95.712H263.187L262.233 92.046L259.044 83.3431H241.519L238.151 92.046L237.138 95.712H233.502ZM242.294 81.4654L242.95 81.4058H257.793L258.359 81.4654L258.538 81.3462L258.061 80.7203L252.189 65.4008L250.699 60.811H250.282L248.643 65.5499L242.562 80.6905L242.115 81.3462L242.294 81.4654Z" fill="#EFEFEF"/>
<path d="M184.863 95.712L185.4 92.046L187.426 58.3372L187.307 55.2673H193.447L206.978 88.8271H207.336L221.225 55.2673H226.977L226.858 58.3372L228.735 92.046L229.272 95.712H222.685L222.775 92.046L221.672 67.1891L221.582 62.0926H221.255L207.455 94.341H203.908L190.258 61.5859H189.9L188.142 92.046L188.261 95.712H184.863Z" fill="#EFEFEF"/>
<path d="M429.984 41.6964C427.282 41.6964 424.759 41.1897 422.414 40.1764C420.089 39.163 418.102 37.7722 416.453 36.0038C414.824 34.2155 413.532 32.0795 412.579 29.5958C411.645 27.0922 411.178 24.3999 411.178 21.5188C411.178 18.6178 411.615 15.8858 412.489 13.3226C413.363 10.7395 414.625 8.45452 416.274 6.46756C417.923 4.4806 420.03 2.9109 422.593 1.75846C425.176 0.586154 428.057 0 431.236 0C434.833 0 438.081 0.914003 440.982 2.74201C443.883 4.55014 446.128 6.99411 447.718 10.0739C449.308 13.1537 450.102 16.5415 450.102 20.2372C450.102 23.1382 449.645 25.8802 448.731 28.4632C447.837 31.0264 446.546 33.3015 444.857 35.2885C443.188 37.2555 441.072 38.8153 438.508 39.9677C435.945 41.1202 433.104 41.6964 429.984 41.6964ZM430.998 39.5803C433.462 39.5803 435.647 38.7656 437.555 37.1363C439.462 35.4871 440.913 33.2816 441.906 30.5197C442.9 27.738 443.396 24.6284 443.396 21.191C443.396 19.0649 443.217 17.0481 442.86 15.1407C442.522 13.2332 441.996 11.4846 441.28 9.89507C440.565 8.3055 439.691 6.9345 438.657 5.78206C437.644 4.60975 436.412 3.70568 434.962 3.06985C433.531 2.41416 431.961 2.08631 430.253 2.08631C426.676 2.08631 423.725 3.78516 421.401 7.18287C419.076 10.5806 417.914 14.9618 417.914 20.3266C417.914 24.1019 418.371 27.4101 419.285 30.2515C420.218 33.0929 421.679 35.358 423.666 37.0469C425.673 38.7358 428.117 39.5803 430.998 39.5803Z" fill="#EFEFEF"/>
<path d="M383.15 41.3091C381.541 41.3091 377.795 41.2296 371.914 41.0706L372.212 37.5239V3.72567L371.914 0.626006C376.405 0.467051 380.319 0.387573 383.657 0.387573C387.075 0.387573 390.115 0.765096 392.777 1.52014C395.44 2.27519 397.605 3.2786 399.275 4.53039C400.963 5.78217 402.344 7.29227 403.417 9.06067C404.51 10.8092 405.265 12.6173 405.682 14.4851C406.12 16.3329 406.338 18.3199 406.338 20.446C406.338 22.7508 406.11 24.8868 405.653 26.8539C405.196 28.821 404.401 30.7086 403.268 32.5168C402.156 34.3249 400.735 35.8648 399.006 37.1364C397.278 38.4081 395.062 39.4215 392.36 40.1765C389.677 40.9315 386.608 41.3091 383.15 41.3091ZM383.955 39.342C386.637 39.342 389.002 38.8651 391.049 37.9114C393.115 36.9576 394.764 35.6363 395.996 33.9474C397.248 32.2585 398.182 30.341 398.798 28.1951C399.414 26.0293 399.722 23.6549 399.722 21.0719C399.722 8.55399 394.257 2.29505 383.329 2.29505C382.058 2.29505 380.339 2.3646 378.173 2.50369V39.1035C380.12 39.2625 382.048 39.342 383.955 39.342Z" fill="#EFEFEF"/>
<path d="M335.707 41.0706L336.005 37.4345V3.63626L335.707 0.626006C340.257 0.467051 343.824 0.387573 346.407 0.387573C349.169 0.387573 351.464 0.546529 353.292 0.864442C355.14 1.16249 356.739 1.7089 358.09 2.50369C359.441 3.29847 360.415 4.40124 361.011 5.81198C361.627 7.20285 361.935 8.98119 361.935 11.147C361.935 13.8095 360.951 16.1541 358.984 18.1808C357.037 20.2075 354.692 21.4295 351.95 21.8468C352.805 22.4826 353.967 23.8834 355.438 26.0492L363.068 37.4345L365.929 41.0706H358.746L356.838 37.4345L346.466 21.9958H341.966V37.4345L342.264 41.0706H335.707ZM341.966 20.0883H346.705C349.526 20.0883 351.692 19.3432 353.202 17.853C354.712 16.3628 355.467 14.2665 355.467 11.5642C355.467 9.57727 355.318 7.97777 355.02 6.76572C354.722 5.55368 354.186 4.6198 353.411 3.96411C352.636 3.28854 351.722 2.84147 350.669 2.6229C349.616 2.40434 348.205 2.29505 346.437 2.29505C345.225 2.29505 343.734 2.3646 341.966 2.50369V20.0883Z" fill="#EFEFEF"/>
<path d="M293.402 41.0706L295.042 37.4047L309.825 0.625977H314.087L328.184 37.4047L329.913 41.0706H323.088L322.134 37.4047L318.945 28.7018H301.42L298.052 37.4047L297.038 41.0706H293.402ZM302.195 26.8241L302.85 26.7645H317.693L318.259 26.8241L318.438 26.7049L317.961 26.079L312.09 10.7595L310.6 6.16961H310.182L308.543 10.9085L302.463 26.0492L302.016 26.7049L302.195 26.8241Z" fill="#EFEFEF"/>
<path d="M274.538 41.6965C269.034 41.6965 265.001 40.3056 262.438 37.5239C259.875 34.7421 258.593 30.4106 258.593 24.5291V3.69584L258.295 0.625977H264.852L264.554 3.69584V24.1119C264.554 28.1454 264.941 31.3246 265.716 33.6493C266.511 35.9542 267.644 37.5537 269.114 38.4478C270.584 39.3419 272.551 39.789 275.015 39.789C276.764 39.789 278.264 39.6499 279.516 39.3718C280.787 39.0737 281.94 38.567 282.973 37.8517C284.006 37.1364 284.831 36.1628 285.447 34.9309C286.083 33.699 286.559 32.1392 286.877 30.2516C287.215 28.364 287.384 26.0988 287.384 23.4562V3.69584L287.086 0.625977H290.454L290.156 3.69584V23.0985C290.156 25.3239 290.066 27.2711 289.888 28.9402C289.709 30.6092 289.391 32.169 288.934 33.6195C288.497 35.0501 287.891 36.2522 287.116 37.2258C286.361 38.1796 285.407 39.0042 284.255 39.6996C283.102 40.395 281.721 40.9017 280.112 41.2196C278.522 41.5375 276.664 41.6965 274.538 41.6965Z" fill="#EFEFEF"/>
<path d="M228.539 41.3091C226.93 41.3091 223.184 41.2296 217.303 41.0706L217.601 37.5239V3.72567L217.303 0.626006C221.793 0.467051 225.708 0.387573 229.046 0.387573C232.463 0.387573 235.503 0.765096 238.166 1.52014C240.828 2.27519 242.994 3.2786 244.663 4.53039C246.352 5.78217 247.733 7.29227 248.806 9.06067C249.899 10.8092 250.654 12.6173 251.071 14.4851C251.508 16.3329 251.727 18.3199 251.727 20.446C251.727 22.7508 251.498 24.8868 251.041 26.8539C250.584 28.821 249.79 30.7086 248.657 32.5168C247.544 34.3249 246.124 35.8648 244.395 37.1364C242.666 38.4081 240.451 39.4215 237.749 40.1765C235.066 40.9315 231.996 41.3091 228.539 41.3091ZM229.344 39.342C232.026 39.342 234.391 38.8651 236.437 37.9114C238.504 36.9576 240.153 35.6363 241.385 33.9474C242.637 32.2585 243.57 30.341 244.186 28.1951C244.802 26.0293 245.11 23.6549 245.11 21.0719C245.11 8.55399 239.646 2.29505 228.718 2.29505C227.446 2.29505 225.727 2.3646 223.562 2.50369V39.1035C225.509 39.2625 227.436 39.342 229.344 39.342Z" fill="#EFEFEF"/>
<path d="M186.801 41.0706L187.099 37.4047V3.69584L186.801 0.625977H208.767L208.528 2.83151L204.236 2.50366H193.03V18.8365L208.051 18.5384V20.4459H193.03V39.1631H204.266L208.469 38.8353V41.0706H186.801Z" fill="#EFEFEF"/>
<path d="M299.898 120.572C299.898 119.623 300.025 118.734 300.277 117.905C300.541 117.076 300.926 116.355 301.43 115.742C301.935 115.118 302.56 114.625 303.304 114.265C304.049 113.904 304.908 113.724 305.881 113.724C306.891 113.724 307.774 113.904 308.531 114.265C309.3 114.613 309.936 115.1 310.441 115.724C310.957 116.337 311.342 117.064 311.594 117.905C311.859 118.734 311.991 119.623 311.991 120.572C311.991 121.509 311.859 122.392 311.594 123.221C311.342 124.038 310.964 124.759 310.459 125.384C309.954 125.996 309.324 126.483 308.567 126.843C307.81 127.204 306.933 127.384 305.936 127.384C304.938 127.384 304.061 127.204 303.304 126.843C302.548 126.483 301.917 125.996 301.412 125.384C300.908 124.759 300.529 124.038 300.277 123.221C300.025 122.392 299.898 121.509 299.898 120.572ZM305.954 126.339C306.795 126.339 307.515 126.183 308.116 125.87C308.729 125.546 309.227 125.119 309.612 124.591C310.008 124.062 310.297 123.449 310.477 122.753C310.669 122.056 310.765 121.329 310.765 120.572C310.765 119.671 310.651 118.866 310.423 118.157C310.207 117.436 309.888 116.824 309.468 116.319C309.047 115.814 308.537 115.43 307.936 115.166C307.335 114.901 306.662 114.769 305.918 114.769C305.089 114.769 304.368 114.931 303.755 115.256C303.154 115.58 302.656 116.013 302.259 116.553C301.875 117.082 301.586 117.695 301.394 118.391C301.214 119.088 301.124 119.815 301.124 120.572C301.124 121.341 301.214 122.074 301.394 122.771C301.586 123.467 301.875 124.08 302.259 124.609C302.656 125.137 303.154 125.558 303.755 125.87C304.368 126.183 305.101 126.339 305.954 126.339Z" fill="#EFEFEF"/>
<path d="M283.793 127.042V114.066H288.226C288.587 114.066 288.941 114.078 289.289 114.102C289.638 114.114 289.98 114.156 290.317 114.228C290.653 114.289 290.977 114.385 291.29 114.517C291.614 114.649 291.927 114.823 292.227 115.039C292.659 115.352 293.014 115.736 293.29 116.193C293.567 116.637 293.783 117.112 293.939 117.616C294.107 118.109 294.221 118.614 294.281 119.13C294.353 119.635 294.389 120.103 294.389 120.536C294.389 120.968 294.359 121.407 294.299 121.851C294.251 122.296 294.167 122.735 294.047 123.167C293.927 123.588 293.765 123.996 293.56 124.392C293.368 124.777 293.122 125.131 292.822 125.456C292.521 125.792 292.191 126.062 291.83 126.267C291.482 126.471 291.11 126.633 290.713 126.753C290.329 126.861 289.926 126.939 289.506 126.988C289.085 127.024 288.659 127.042 288.226 127.042H283.793ZM285.018 125.996H287.956C288.509 125.996 289.025 125.966 289.506 125.906C289.998 125.834 290.497 125.666 291.001 125.402C291.434 125.185 291.788 124.891 292.065 124.519C292.341 124.146 292.557 123.744 292.713 123.311C292.882 122.867 292.996 122.404 293.056 121.924C293.128 121.443 293.164 120.98 293.164 120.536C293.164 120.067 293.134 119.593 293.074 119.112C293.014 118.62 292.9 118.157 292.732 117.725C292.563 117.28 292.335 116.878 292.047 116.517C291.758 116.145 291.386 115.838 290.929 115.598C290.545 115.394 290.088 115.262 289.56 115.202C289.031 115.142 288.497 115.112 287.956 115.112H285.018V125.996Z" fill="#EFEFEF"/>
<path d="M266.979 127.042L272.079 114.066H273.466L278.44 127.042H277.179L275.683 122.969H269.772L268.24 127.042H266.979ZM270.186 121.924H275.268L272.727 115.112L270.186 121.924Z" fill="#EFEFEF"/>
<path d="M256.052 121.383V120.338H261.603V127.042H260.558V124.825C260.329 125.209 260.065 125.564 259.765 125.888C259.476 126.201 259.14 126.471 258.756 126.699C258.371 126.915 257.927 127.084 257.422 127.204C256.917 127.324 256.347 127.384 255.71 127.384C254.893 127.384 254.136 127.24 253.439 126.952C252.742 126.663 252.142 126.237 251.637 125.672C251.133 125.095 250.736 124.374 250.448 123.509C250.171 122.644 250.033 121.635 250.033 120.482C250.033 119.533 250.153 118.65 250.394 117.833C250.634 117.004 251 116.289 251.493 115.688C251.998 115.075 252.622 114.595 253.367 114.246C254.124 113.898 255.013 113.724 256.034 113.724C256.719 113.724 257.356 113.808 257.945 113.976C258.545 114.144 259.08 114.403 259.548 114.751C260.029 115.087 260.431 115.514 260.756 116.031C261.08 116.535 261.315 117.136 261.459 117.833H260.197C260.089 117.352 259.903 116.92 259.639 116.535C259.386 116.151 259.08 115.832 258.719 115.58C258.359 115.316 257.957 115.118 257.512 114.985C257.068 114.841 256.605 114.769 256.124 114.769C255.271 114.769 254.539 114.919 253.926 115.22C253.313 115.52 252.808 115.947 252.412 116.499C252.016 117.04 251.721 117.695 251.529 118.463C251.349 119.22 251.259 120.055 251.259 120.968C251.259 121.689 251.361 122.374 251.565 123.023C251.781 123.672 252.088 124.242 252.484 124.735C252.893 125.227 253.385 125.618 253.962 125.906C254.551 126.195 255.217 126.339 255.962 126.339C256.311 126.339 256.671 126.303 257.043 126.231C257.416 126.147 257.776 126.014 258.125 125.834C258.473 125.654 258.798 125.42 259.098 125.131C259.398 124.843 259.657 124.489 259.873 124.068C260.077 123.66 260.215 123.233 260.287 122.789C260.371 122.344 260.419 121.876 260.431 121.383H256.052Z" fill="#EFEFEF"/>
<path d="M232.402 120.572C232.402 119.623 232.528 118.734 232.781 117.905C233.045 117.076 233.43 116.355 233.934 115.742C234.439 115.118 235.063 114.625 235.808 114.265C236.553 113.904 237.412 113.724 238.385 113.724C239.395 113.724 240.278 113.904 241.035 114.265C241.803 114.613 242.44 115.1 242.945 115.724C243.461 116.337 243.846 117.064 244.098 117.905C244.362 118.734 244.495 119.623 244.495 120.572C244.495 121.509 244.362 122.392 244.098 123.221C243.846 124.038 243.467 124.759 242.963 125.384C242.458 125.996 241.827 126.483 241.071 126.843C240.314 127.204 239.437 127.384 238.439 127.384C237.442 127.384 236.565 127.204 235.808 126.843C235.051 126.483 234.421 125.996 233.916 125.384C233.412 124.759 233.033 124.038 232.781 123.221C232.528 122.392 232.402 121.509 232.402 120.572ZM238.457 126.339C239.298 126.339 240.019 126.183 240.62 125.87C241.233 125.546 241.731 125.119 242.116 124.591C242.512 124.062 242.801 123.449 242.981 122.753C243.173 122.056 243.269 121.329 243.269 120.572C243.269 119.671 243.155 118.866 242.927 118.157C242.711 117.436 242.392 116.824 241.972 116.319C241.551 115.814 241.041 115.43 240.44 115.166C239.839 114.901 239.166 114.769 238.421 114.769C237.592 114.769 236.872 114.931 236.259 115.256C235.658 115.58 235.16 116.013 234.763 116.553C234.379 117.082 234.09 117.695 233.898 118.391C233.718 119.088 233.628 119.815 233.628 120.572C233.628 121.341 233.718 122.074 233.898 122.771C234.09 123.467 234.379 124.08 234.763 124.609C235.16 125.137 235.658 125.558 236.259 125.87C236.872 126.183 237.604 126.339 238.457 126.339Z" fill="#EFEFEF"/>
<path d="M217.15 114.066H218.43L222.341 125.6L226.233 114.066H227.513L223.007 127.042H221.656L217.15 114.066Z" fill="#EFEFEF"/>
<path d="M201.678 127.042V114.066H206.111C206.471 114.066 206.826 114.078 207.174 114.102C207.523 114.114 207.865 114.156 208.201 114.228C208.538 114.289 208.862 114.385 209.175 114.517C209.499 114.649 209.811 114.823 210.112 115.039C210.544 115.352 210.899 115.736 211.175 116.193C211.451 116.637 211.668 117.112 211.824 117.616C211.992 118.109 212.106 118.614 212.166 119.13C212.238 119.635 212.274 120.103 212.274 120.536C212.274 120.968 212.244 121.407 212.184 121.851C212.136 122.296 212.052 122.735 211.932 123.167C211.812 123.588 211.65 123.996 211.445 124.392C211.253 124.777 211.007 125.131 210.706 125.456C210.406 125.792 210.076 126.062 209.715 126.267C209.367 126.471 208.994 126.633 208.598 126.753C208.213 126.861 207.811 126.939 207.39 126.988C206.97 127.024 206.543 127.042 206.111 127.042H201.678ZM202.903 125.996H205.841C206.393 125.996 206.91 125.966 207.39 125.906C207.883 125.834 208.382 125.666 208.886 125.402C209.319 125.185 209.673 124.891 209.95 124.519C210.226 124.146 210.442 123.744 210.598 123.311C210.766 122.867 210.881 122.404 210.941 121.924C211.013 121.443 211.049 120.98 211.049 120.536C211.049 120.067 211.019 119.593 210.959 119.112C210.899 118.62 210.784 118.157 210.616 117.725C210.448 117.28 210.22 116.878 209.931 116.517C209.643 116.145 209.271 115.838 208.814 115.598C208.43 115.394 207.973 115.262 207.445 115.202C206.916 115.142 206.381 115.112 205.841 115.112H202.903V125.996Z" fill="#EFEFEF"/>
<path d="M184.863 127.042L189.963 114.066H191.351L196.325 127.042H195.063L193.568 122.969H187.657L186.125 127.042H184.863ZM188.071 121.924H193.153L190.612 115.112L188.071 121.924Z" fill="#EFEFEF"/>
</svg>
