<svg width="151" height="127" viewBox="0 0 151 127" fill="none" xmlns="http://www.w3.org/2000/svg">
<path d="M40.5117 112.518L41.8243 103.549L46.7828 21.0765L46.4911 13.5658H61.5126L94.6181 95.6733H95.4931L129.474 13.5658H143.547L143.255 21.0765L147.849 103.549L149.162 112.518H133.047L133.266 103.549L130.567 42.7336L130.349 30.2644H129.547L95.7848 109.163H87.1074L53.7102 29.0247H52.8351L48.5329 103.549L48.8246 112.518H40.5117Z" fill="#EFEFEF"/>
<path d="M0 126.376L0.931289 114.921V9.59227L0 0H150.093L149.347 6.89153L135.937 5.86712H19.4639V56.9017L48.2717 55.9704V61.9306H19.4639V120.416H136.03L149.161 119.391V126.376H0Z" fill="#EFEFEF"/>
</svg>
